<?xml version="1.0" encoding="UTF-8" standalone="no"?>
<!-- Created with Inkscape (http://www.inkscape.org/) -->

<svg
   width="1000"
   height="1000"
   viewBox="0 0 264.58333 264.58334"
   version="1.1"
   id="svg1385"
   inkscape:version="1.1 (1:1.1+202105261517+ce6663b3b7)"
   sodipodi:docname="PacBullets.svg"
   xmlns:inkscape="http://www.inkscape.org/namespaces/inkscape"
   xmlns:sodipodi="http://sodipodi.sourceforge.net/DTD/sodipodi-0.dtd"
   xmlns="http://www.w3.org/2000/svg"
   xmlns:svg="http://www.w3.org/2000/svg"
   xmlns:rdf="http://www.w3.org/1999/02/22-rdf-syntax-ns#"
   xmlns:cc="http://creativecommons.org/ns#"
   xmlns:dc="http://purl.org/dc/elements/1.1/">
  <defs
     id="defs1379">
    <inkscape:path-effect
       effect="spiro"
       id="path-effect1543"
       is_visible="true" />
    <inkscape:path-effect
       effect="spiro"
       id="path-effect1539"
       is_visible="true" />
    <inkscape:path-effect
       effect="spiro"
       id="path-effect1532"
       is_visible="true" />
    <inkscape:path-effect
       effect="spiro"
       id="path-effect1528"
       is_visible="true" />
    <inkscape:path-effect
       effect="spiro"
       id="path-effect1524"
       is_visible="true" />
    <inkscape:path-effect
       effect="spiro"
       id="path-effect1520"
       is_visible="true" />
  </defs>
  <sodipodi:namedview
     id="base"
     pagecolor="#ffffff"
     bordercolor="#666666"
     borderopacity="1.0"
     inkscape:pageopacity="0.0"
     inkscape:pageshadow="2"
     inkscape:zoom="1.2430192"
     inkscape:cx="378.11162"
     inkscape:cy="277.14777"
     inkscape:document-units="px"
     inkscape:current-layer="layer1"
     showgrid="false"
     inkscape:window-width="1916"
     inkscape:window-height="1040"
     inkscape:window-x="0"
     inkscape:window-y="18"
     inkscape:window-maximized="0"
     units="px"
     showguides="true"
     inkscape:guide-bbox="true"
     inkscape:snap-object-midpoints="true"
     inkscape:snap-midpoints="false"
     inkscape:object-nodes="true"
     inkscape:snap-center="true"
     inkscape:object-paths="true"
     inkscape:snap-intersection-paths="true"
     inkscape:snap-smooth-nodes="true"
     inkscape:snap-bbox="true"
     inkscape:pagecheckerboard="0">
    <sodipodi:guide
       position="38.364584,245.4795"
       orientation="1,0"
       id="guide877"
       inkscape:locked="false"
       inkscape:label=""
       inkscape:color="rgb(0,0,255)" />
    <sodipodi:guide
       position="26.458333,219.74679"
       orientation="1,0"
       id="guide879"
       inkscape:locked="false"
       inkscape:label=""
       inkscape:color="rgb(0,0,255)" />
    <sodipodi:guide
       position="4.3600803,222.25"
       orientation="0,1"
       id="guide881"
       inkscape:locked="false"
       inkscape:label=""
       inkscape:color="rgb(0,0,255)" />
    <sodipodi:guide
       position="2.6458333,262.04052"
       orientation="1,0"
       id="guide883"
       inkscape:locked="false"
       inkscape:label=""
       inkscape:color="rgb(0,0,255)" />
    <sodipodi:guide
       position="14.552083,263.54563"
       orientation="1,0"
       id="guide885"
       inkscape:locked="false"
       inkscape:label=""
       inkscape:color="rgb(0,0,255)" />
    <sodipodi:guide
       position="-15.051149,257.96875"
       orientation="0,1"
       id="guide889"
       inkscape:locked="false"
       inkscape:label=""
       inkscape:color="rgb(0,0,255)" />
    <sodipodi:guide
       position="-9.9337584,246.0625"
       orientation="0,1"
       id="guide891"
       inkscape:locked="false"
       inkscape:label=""
       inkscape:color="rgb(0,0,255)" />
    <sodipodi:guide
       position="2.6458333,234.15625"
       orientation="0,1"
       id="guide893"
       inkscape:locked="false"
       inkscape:label=""
       inkscape:color="rgb(0,0,255)" />
    <sodipodi:guide
       position="74.083334,238.07876"
       orientation="1,0"
       id="guide897"
       inkscape:locked="false"
       inkscape:label=""
       inkscape:color="rgb(0,0,255)" />
    <sodipodi:guide
       position="62.177084,249.67938"
       orientation="1,0"
       id="guide899"
       inkscape:locked="false"
       inkscape:label=""
       inkscape:color="rgb(0,0,255)" />
    <sodipodi:guide
       position="26.458332,210.34375"
       orientation="0,1"
       id="guide901"
       inkscape:locked="false"
       inkscape:label=""
       inkscape:color="rgb(0,0,255)" />
    <sodipodi:guide
       position="50.270834,229.24527"
       orientation="1,0"
       id="guide903"
       inkscape:locked="false"
       inkscape:label=""
       inkscape:color="rgb(0,0,255)" />
    <sodipodi:guide
       position="2.6458333,198.4375"
       orientation="0,1"
       id="guide915"
       inkscape:locked="false"
       inkscape:label=""
       inkscape:color="rgb(0,0,255)" />
    <sodipodi:guide
       position="-3.8313971,186.53125"
       orientation="0,1"
       inkscape:locked="false"
       id="guide919"
       inkscape:label=""
       inkscape:color="rgb(0,0,255)" />
    <sodipodi:guide
       position="68.130209,215.83538"
       orientation="1,0"
       id="guide1271"
       inkscape:locked="false"
       inkscape:label=""
       inkscape:color="rgb(0,0,255)" />
    <sodipodi:guide
       position="56.223959,210.34375"
       orientation="1,0"
       id="guide1274"
       inkscape:locked="false"
       inkscape:label=""
       inkscape:color="rgb(0,0,255)" />
  </sodipodi:namedview>
  <metadata
     id="metadata1382">
    <rdf:RDF>
      <cc:Work
         rdf:about="">
        <dc:format>image/svg+xml</dc:format>
        <dc:type
           rdf:resource="http://purl.org/dc/dcmitype/StillImage" />
        <dc:title />
      </cc:Work>
    </rdf:RDF>
  </metadata>
  <g
     inkscape:groupmode="layer"
     id="layer5"
     inkscape:label="PacFieldGhostDoor"
     style="display:inline"
     sodipodi:insensitive="true">
    <path
       style="fill:none;stroke:#6cffff;stroke-width:0.66145831;stroke-linecap:butt;stroke-linejoin:miter;stroke-miterlimit:4;stroke-dasharray:none;stroke-opacity:1"
       d="m 56.223959,66.145835 h 11.90625"
       id="path1276"
       inkscape:connector-curvature="0" />
  </g>
  <g
     inkscape:groupmode="layer"
     id="layer9"
     inkscape:label="PacFieldNEW"
     sodipodi:insensitive="true">
    <path
       style="fill:#0000fd;fill-opacity:1;stroke-width:0.0254"
       d="m 62.187371,138.23066 c -47.96885,0.004 -59.6497899,-0.002 -59.7456399,-0.0274 -0.0655,-0.0177 -0.16028,-0.0597 -0.21056,-0.0935 -0.0503,-0.0338 -0.12468,-0.11111 -0.16531,-0.1718 -0.0406,-0.0607 -0.086,-0.16926 -0.10087,-0.2413 -0.0189,-0.0919 -0.025,-5.47968 -0.0203,-18.06336 0.007,-17.9324 0.007,-17.9324 0.0597,-18.04699 0.0292,-0.063 0.0919,-0.15345 0.13941,-0.20096 0.0475,-0.0475 0.13794,-0.11024 0.20096,-0.13941 0.11459,-0.053 0.11459,-0.053 11.7604899,-0.0657 l 11.6459,-0.0127 v -11.226894 -11.2268 l -11.6586,-0.0127 c -10.6112999,-0.01156 -11.6665899,-0.01635 -11.7474999,-0.0533 -0.0489,-0.02233 -0.12661,-0.0724 -0.1727,-0.111257 -0.0461,-0.03886 -0.11385,-0.129177 -0.15058,-0.200701 -0.0521,-0.101445 -0.0667,-0.166347 -0.0665,-0.29514 1.8e-4,-0.093 0.0177,-0.205474 0.0402,-0.257546 0.0219,-0.05084 0.081,-0.138059 0.13141,-0.193812 0.0504,-0.05575 0.14801,-0.125644 0.21698,-0.155311 0.12539,-0.05394 0.12539,-0.05394 12.2108299,-0.04749 11.50063,0.0061 12.08943,0.0086 12.1676,0.05135 0.0452,0.02469 0.1202,0.08295 0.1667,0.129454 0.0465,0.04651 0.1067,0.129174 0.13376,0.183705 0.0485,0.09765 0.0492,0.281854 0.0492,12.189546 0,12.090406 0,12.090406 -0.0739,12.223866 -0.0407,0.0734 -0.11211,0.16257 -0.15876,0.19815 -0.0466,0.0356 -0.12767,0.0841 -0.18005,0.10784 -0.0891,0.0404 -0.84574,0.0436 -11.73479,0.0497 l -11.6395499,0.007 v 17.18291 17.18293 l 29.0893499,-0.006 29.08935,-0.006 0.0127,-11.6586 c 0.0127,-11.65861 0.0127,-11.65861 0.0676,-11.76021 0.0302,-0.0559 0.0931,-0.13746 0.1397,-0.1813 0.0466,-0.0438 0.12478,-0.10076 0.17368,-0.1265 0.0634,-0.0334 0.14345,-0.0468 0.2794,-0.0468 0.13595,0 0.21596,0.0134 0.2794,0.0468 0.0489,0.0257 0.12705,0.0827 0.17368,0.1265 0.0466,0.0438 0.10949,0.12542 0.1397,0.1813 0.0549,0.1016 0.0549,0.1016 0.0676,11.76021 l 0.0127,11.6586 29.08935,0.006 29.089349,0.006 v -17.18288 -17.18292 l -11.63955,-0.007 c -10.889049,-0.006 -11.645689,-0.009 -11.734789,-0.0497 -0.0524,-0.0237 -0.13341,-0.0723 -0.18005,-0.10784 -0.0466,-0.0356 -0.11809,-0.12475 -0.15876,-0.19815 -0.074,-0.13346 -0.074,-0.13346 -0.074,-12.223863 0,-11.907692 7.4e-4,-12.091898 0.0492,-12.189546 0.0271,-0.05453 0.0873,-0.137198 0.13376,-0.183705 0.0465,-0.04651 0.12152,-0.104763 0.1667,-0.129454 0.0782,-0.04272 0.66696,-0.04521 12.167599,-0.05135 12.08544,-0.0065 12.08544,-0.0065 12.21083,0.04749 0.069,0.02967 0.16661,0.09956 0.21698,0.155311 0.0504,0.05575 0.1095,0.142969 0.13141,0.193812 0.0224,0.05207 0.04,0.164551 0.0402,0.257546 2.5e-4,0.128793 -0.0144,0.193695 -0.0664,0.29514 -0.0367,0.07152 -0.10449,0.161839 -0.15058,0.200701 -0.0461,0.03886 -0.12381,0.08893 -0.1727,0.111257 -0.0809,0.03695 -1.1362,0.04174 -11.7475,0.0533 l -11.658599,0.0127 v 11.2268 11.226801 l 11.645899,0.0127 c 11.6459,0.0127 11.6459,0.0127 11.76048,0.0657 0.063,0.0292 0.15346,0.0919 0.20097,0.13942 0.0475,0.0475 0.11024,0.13794 0.13941,0.20096 0.053,0.11458 0.053,0.11458 0.053,18.12318 0,18.00861 0,18.00861 -0.053,18.12319 -0.0292,0.063 -0.0919,0.15345 -0.13941,0.20096 -0.0475,0.0475 -0.13794,0.11025 -0.20097,0.13942 -0.11458,0.053 -0.11458,0.053 -59.741079,0.0577 z m -0.0196,-0.4063 c 59.606869,-0.005 59.606869,-0.005 59.677299,-0.0752 0.0704,-0.0704 0.0704,-0.0704 0.0704,-18.03977 0,-17.96935 0,-17.96935 -0.0704,-18.03978 -0.0704,-0.0704 -0.0704,-0.0704 -11.88575,-0.0769 -9.4028,-0.005 -11.819429,-0.0129 -11.835429,-0.0381 -0.0111,-0.0174 -0.0203,-5.235926 -0.0205,-11.596685 -2.6e-4,-7.92421 0.008,-11.580487 0.0259,-11.614149 0.0259,-0.04847 0.18598,-0.04913 11.826239,-0.04913 11.79995,0 11.79995,0 11.88631,-0.08636 0.0579,-0.05791 0.0863,-0.110209 0.0863,-0.15875 0,-0.03981 -0.0223,-0.108837 -0.0495,-0.153381 -0.0332,-0.05442 -0.0811,-0.08979 -0.14596,-0.10781 -0.0672,-0.01865 -3.71434,-0.02682 -11.97107,-0.02682 -8.06055,0 -11.904719,0.0084 -11.968589,0.02613 -0.0518,0.01437 -0.11748,0.05586 -0.14605,0.09218 -0.052,0.06605 -0.052,0.06605 -0.052,12.063724 0,11.997671 0,11.997671 0.0741,12.080621 0.0741,0.083 0.0741,0.083 11.899899,0.0894 l 11.82578,0.006 v 17.58943 17.58943 l -29.495749,-0.006 -29.49575,-0.006 -0.0127,-11.8323 c -0.0127,-11.83229 -0.0127,-11.83229 -0.0731,-11.88116 -0.0332,-0.0269 -0.0875,-0.0557 -0.12065,-0.064 -0.0332,-0.008 -0.0874,-0.008 -0.12058,0 -0.0332,0.008 -0.0874,0.0371 -0.12065,0.064 -0.0604,0.0489 -0.0604,0.0489 -0.0731,11.88116 l -0.0127,11.8323 -29.49575,0.006 -29.4957499,0.006 v -17.58936 -17.58943 l 11.8257799,-0.006 c 11.82579,-0.006 11.82579,-0.006 11.8999,-0.0894 0.0741,-0.0829 0.0741,-0.0829 0.0741,-12.080625 0,-11.997674 0,-11.997674 -0.052,-12.063724 -0.0286,-0.03633 -0.0943,-0.07781 -0.14605,-0.09218 -0.0639,-0.01774 -3.90805,-0.02613 -11.96859,-0.02613 -8.2567299,0 -11.9039199,0.0082 -11.9710699,0.02682 -0.0649,0.01802 -0.11277,0.05339 -0.14596,0.10781 -0.0272,0.04454 -0.0494,0.113566 -0.0495,0.153381 -6e-5,0.04854 0.0284,0.10084 0.0863,0.15875 0.0864,0.08636 0.0864,0.08636 11.8863099,0.08636 11.64026,0 11.8003,6.6e-4 11.82624,0.04913 0.018,0.03366 0.0262,3.689939 0.0259,11.614149 -2e-4,6.360759 -0.009,11.579269 -0.0205,11.596689 -0.016,0.0252 -2.43263,0.033 -11.83543,0.0381 -11.8153299,0.006 -11.8153299,0.006 -11.8857499,0.0769 -0.0704,0.0704 -0.0704,0.0704 -0.0704,18.03768 0,17.93151 1e-4,17.96737 0.0508,18.02373 0.0279,0.031 0.0737,0.0658 0.1016,0.0773 0.0279,0.0114 26.8738899,0.0187 59.6576699,0.0161 z M 20.457001,126.3241 c -5.43806,-0.002 -6.07132,-0.006 -6.17267,-0.0419 -0.0643,-0.0227 -0.16369,-0.0906 -0.2307,-0.15764 -0.0739,-0.0739 -0.13354,-0.16405 -0.16011,-0.24204 -0.0391,-0.11464 -0.0423,-0.5934 -0.0423,-6.17313 0,-5.57974 0.003,-6.05849 0.0423,-6.17313 0.0265,-0.0779 0.0862,-0.16811 0.15964,-0.24158 0.0735,-0.0735 0.16373,-0.13312 0.24158,-0.15965 0.11464,-0.0391 0.5934,-0.0423 6.17313,-0.0423 5.57973,0 6.05849,0.003 6.17313,0.0423 0.0778,0.0265 0.1681,0.0862 0.24158,0.15965 0.0735,0.0735 0.13312,0.16372 0.15964,0.24158 0.0391,0.11464 0.0423,0.59339 0.0423,6.17313 0,5.57973 -0.003,6.05849 -0.0423,6.17313 -0.0265,0.0778 -0.0862,0.1681 -0.15964,0.24158 -0.0735,0.0735 -0.16373,0.13311 -0.24158,0.15964 -0.11471,0.0391 -0.5909,0.0422 -6.184,0.0403 z m -0.075,-0.40439 c 4.66796,0 6.10613,-0.007 6.15717,-0.0304 0.0366,-0.0167 0.0829,-0.0618 0.10279,-0.10034 0.031,-0.06 0.0362,-0.92764 0.0362,-6.07716 0,-4.60329 -0.007,-6.02273 -0.0303,-6.07376 -0.0167,-0.0366 -0.0618,-0.0829 -0.10033,-0.1028 -0.06,-0.031 -0.92798,-0.0362 -6.07962,-0.0362 -5.15164,0 -6.01962,0.005 -6.07962,0.0362 -0.0385,0.0199 -0.0837,0.0662 -0.10033,0.1028 -0.0233,0.051 -0.0303,1.48921 -0.0303,6.15717 0,3.34981 0.008,6.09819 0.0169,6.1075 0.009,0.009 2.75769,0.0169 6.10751,0.0169 z m 0.0859,-0.508 c -5.07747,0 -5.62634,-0.004 -5.66239,-0.0399 -0.036,-0.036 -0.0399,-0.58491 -0.0399,-5.66238 0,-5.07747 0.004,-5.62634 0.0399,-5.66239 0.036,-0.0361 0.58492,-0.0399 5.66239,-0.0399 5.07747,0 5.62634,0.004 5.66239,0.0399 0.036,0.0361 0.0399,0.58492 0.0399,5.66239 0,5.07747 -0.004,5.62634 -0.0399,5.66238 -0.0361,0.0361 -0.58492,0.0399 -5.66239,0.0399 z m 0,-0.4064 c 4.03775,0 5.24191,-0.007 5.26542,-0.0305 0.0235,-0.0235 0.0305,-1.22767 0.0305,-5.26542 0,-4.03776 -0.007,-5.24191 -0.0305,-5.26542 -0.0235,-0.0235 -1.22767,-0.0305 -5.26542,-0.0305 -4.03775,0 -5.24191,0.007 -5.26542,0.0305 -0.0235,0.0235 -0.0305,1.22766 -0.0305,5.26542 0,4.03775 0.007,5.24191 0.0305,5.26542 0.0235,0.0235 1.22767,0.0305 5.26542,0.0305 z m 23.8506,1.31226 c -3.61455,0.002 -6.12842,-0.005 -6.17564,-0.019 -0.0438,-0.0127 -0.13498,-0.0603 -0.20263,-0.10577 -0.09,-0.0604 -0.14359,-0.12299 -0.19976,-0.23318 -0.0768,-0.1506 -0.0768,-0.1506 -0.0768,-6.25019 0,-6.0996 0,-6.0996 0.0768,-6.2502 0.056,-0.10996 0.10981,-0.17279 0.19921,-0.23281 0.0673,-0.0452 0.1658,-0.0939 0.21881,-0.10816 0.0647,-0.0174 2.09615,-0.0238 6.17619,-0.0194 6.07982,0.007 6.07982,0.007 6.18302,0.0618 0.0568,0.0304 0.14538,0.0987 0.19692,0.15173 0.0515,0.0531 0.1111,0.14251 0.13234,0.19876 0.0342,0.0907 0.0378,0.79769 0.0317,6.23637 -0.006,5.66587 -0.0102,6.13991 -0.0492,6.2103 -0.0232,0.0419 -0.0798,0.11426 -0.12565,0.16078 -0.0459,0.0465 -0.12972,0.10939 -0.18634,0.1397 -0.10294,0.0551 -0.10294,0.0551 -6.19894,0.0593 z m -0.12075,-0.39786 c 5.61369,0 6.12141,-0.003 6.17568,-0.0414 0.0325,-0.0228 0.0751,-0.0796 0.0945,-0.12619 0.03,-0.0717 0.0354,-1.00482 0.0354,-6.04269 0,-5.03788 -0.005,-5.97102 -0.0354,-6.0427 -0.0195,-0.0466 -0.062,-0.1034 -0.0945,-0.12618 -0.0543,-0.038 -0.55614,-0.0414 -6.09828,-0.0414 -6.03915,0 -6.03915,0 -6.1221,0.0741 -0.0829,0.0741 -0.0829,0.0741 -0.0895,6.17855 -0.004,3.35744 -10e-4,6.11872 0.006,6.13619 0.01,0.0253 1.25882,0.0318 6.12866,0.0318 z m 0.0742,-0.51001 c -3.08972,-0.001 -5.63196,-0.008 -5.64942,-0.0148 -0.0253,-0.0102 -0.0317,-1.17099 -0.0317,-5.68487 0,-5.14875 0.004,-5.67349 0.0402,-5.68748 0.0221,-0.008 2.56434,-0.0154 5.64942,-0.0154 3.08508,0 5.62732,0.007 5.64942,0.0154 0.0365,0.014 0.0402,0.53867 0.0402,5.68688 0,5.1482 -0.004,5.67288 -0.0402,5.68688 -0.0221,0.008 -2.56813,0.0145 -5.65785,0.0134 z m 0.014,-0.41068 5.26492,-0.006 v -5.2832 -5.2832 h -5.2705 -5.2705 l -0.007,5.2578 c -0.004,2.89179 -10e-4,5.27211 0.006,5.28961 0.01,0.0254 1.07841,0.0305 5.27702,0.0254 z m 35.69412,1.32583 c -5.00742,-8.1e-4 -6.06169,-0.007 -6.14127,-0.0352 -0.0528,-0.0189 -0.13285,-0.0596 -0.1778,-0.0906 -0.045,-0.031 -0.11325,-0.097 -0.15177,-0.14674 -0.0385,-0.0497 -0.0815,-0.1329 -0.0954,-0.18482 -0.0167,-0.0621 -0.0232,-2.18969 -0.0189,-6.21232 0.006,-5.65122 0.01,-6.12374 0.0488,-6.19412 0.0232,-0.0419 0.0798,-0.11427 0.12565,-0.16079 0.0459,-0.0465 0.12972,-0.10939 0.18634,-0.1397 0.10294,-0.0551 0.10294,-0.0551 6.18276,-0.0617 4.08004,-0.004 6.11151,0.002 6.17619,0.0194 0.053,0.0143 0.15148,0.0629 0.21881,0.10816 0.0894,0.06 0.14316,0.12284 0.19921,0.23281 0.0768,0.1506 0.0768,0.1506 0.0768,6.25019 0,6.0996 0,6.0996 -0.0768,6.2502 -0.0559,0.10976 -0.10984,0.17281 -0.1987,0.23247 -0.0671,0.045 -0.16396,0.0935 -0.21533,0.10781 -0.0624,0.0173 -2.09913,0.0256 -6.1386,0.025 z m 0.10098,-0.41144 6.12202,-0.006 v -6.12984 c 0,-6.12983 0,-6.12983 -0.0829,-6.20395 -0.083,-0.0741 -0.083,-0.0741 -6.1221,-0.0741 -5.54214,0 -6.04401,0.003 -6.09828,0.0414 -0.0325,0.0228 -0.0751,0.0796 -0.0945,0.12619 -0.03,0.0717 -0.0354,1.00482 -0.0354,6.04269 0,5.03787 0.005,5.97102 0.0354,6.04269 0.0195,0.0466 0.0621,0.10343 0.0946,0.12624 0.0544,0.0381 0.55296,0.0409 6.18124,0.0351 z m -0.0967,-0.50371 c -3.08972,-0.001 -5.63196,-0.008 -5.64942,-0.0148 -0.0253,-0.0102 -0.0318,-1.17099 -0.0318,-5.68487 0,-5.14875 0.004,-5.67349 0.0402,-5.68748 0.0221,-0.008 2.56434,-0.0154 5.64942,-0.0154 3.08508,0 5.62732,0.007 5.64942,0.0154 0.0365,0.014 0.0402,0.53867 0.0402,5.68688 0,5.1482 -0.004,5.67288 -0.0402,5.68688 -0.0221,0.008 -2.56813,0.0145 -5.65785,0.0134 z m 0.014,-0.41068 5.26492,-0.006 v -5.2832 -5.2832 h -5.2705 -5.2705 l -0.007,5.2578 c -0.004,2.89179 -0.001,5.27211 0.006,5.28961 0.01,0.0254 1.07841,0.0305 5.27702,0.0254 z m 23.796049,1.32508 c -5.438059,-0.002 -6.071319,-0.006 -6.172669,-0.0419 -0.0643,-0.0227 -0.16369,-0.0906 -0.2307,-0.15764 -0.0739,-0.0739 -0.13354,-0.16405 -0.16011,-0.24204 -0.0391,-0.11464 -0.0423,-0.5934 -0.0423,-6.17313 0,-5.57974 0.003,-6.05849 0.0423,-6.17313 0.0265,-0.0779 0.0862,-0.16811 0.15964,-0.24158 0.0735,-0.0735 0.16373,-0.13312 0.24158,-0.15965 0.11464,-0.0391 0.5934,-0.0423 6.173129,-0.0423 5.57973,0 6.05849,0.003 6.17313,0.0423 0.0779,0.0265 0.1681,0.0862 0.24158,0.15965 0.0735,0.0735 0.13312,0.16372 0.15964,0.24158 0.0391,0.11464 0.0423,0.59339 0.0423,6.17313 0,5.57973 -0.003,6.05849 -0.0423,6.17313 -0.0265,0.0778 -0.0862,0.1681 -0.15964,0.24158 -0.0735,0.0735 -0.16373,0.13311 -0.24158,0.15964 -0.11471,0.0391 -0.5909,0.0422 -6.184,0.0403 z m 0.0998,-0.41161 6.1087,-0.005 0.007,-6.096 c 0.005,-4.54965 -8.2e-4,-6.11402 -0.0226,-6.16705 -0.0161,-0.0391 -0.0613,-0.0876 -0.10058,-0.10795 -0.0618,-0.032 -0.87547,-0.0369 -6.08098,-0.0369 -5.151639,0 -6.019609,0.005 -6.079619,0.0362 -0.0385,0.0199 -0.0836,0.0662 -0.10033,0.10279 -0.0233,0.0511 -0.0301,1.47 -0.0294,6.07886 7.4e-4,4.94171 0.007,6.02307 0.0345,6.07296 0.0185,0.0334 0.061,0.0759 0.0943,0.0944 0.05,0.0277 1.13588,0.0327 6.169399,0.0282 z m -0.0889,-0.50078 c -5.077469,0 -5.626339,-0.004 -5.662389,-0.0399 -0.036,-0.036 -0.0399,-0.58491 -0.0399,-5.66238 0,-5.07747 0.004,-5.62634 0.0399,-5.66239 0.036,-0.0361 0.58492,-0.0399 5.662389,-0.0399 5.07747,0 5.62634,0.004 5.66239,0.0399 0.036,0.0361 0.0399,0.58492 0.0399,5.66239 0,5.07747 -0.004,5.62634 -0.0399,5.66238 -0.036,0.0361 -0.58492,0.0399 -5.66239,0.0399 z m 0,-0.4064 c 4.03775,0 5.24191,-0.007 5.26542,-0.0305 0.0235,-0.0235 0.0305,-1.22767 0.0305,-5.26542 0,-4.03776 -0.007,-5.24191 -0.0305,-5.26542 -0.0235,-0.0235 -1.22767,-0.0305 -5.26542,-0.0305 -4.037749,0 -5.241909,0.007 -5.265419,0.0305 -0.0235,0.0235 -0.0305,1.22766 -0.0305,5.26542 0,4.03775 0.007,5.24191 0.0305,5.26542 0.0235,0.0235 1.22767,0.0305 5.265419,0.0305 z M 62.212801,102.51706 c -6.58686,0.002 -12.02864,-0.005 -12.09286,-0.0164 -0.0642,-0.0109 -0.14995,-0.0372 -0.1905,-0.0585 -0.0406,-0.0213 -0.11534,-0.0825 -0.16619,-0.13601 -0.0508,-0.0535 -0.11023,-0.1327 -0.13195,-0.17592 -0.0217,-0.0432 -0.047,-0.13494 -0.0561,-0.20384 -0.009,-0.0699 -0.004,-0.17163 0.0116,-0.23022 0.0155,-0.0577 0.0652,-0.16005 0.11047,-0.22738 0.06,-0.0894 0.12284,-0.14316 0.2328,-0.19921 0.1506,-0.0768 0.1506,-0.0768 5.842,-0.0895 l 5.6914,-0.0127 0.0127,-5.702302 c 0.0124,-5.575675 0.0138,-5.704502 0.0619,-5.801446 0.0271,-0.05453 0.0888,-0.138719 0.13713,-0.187086 0.0484,-0.04836 0.13482,-0.109225 0.19211,-0.135245 0.067,-0.03044 0.16353,-0.04751 0.27063,-0.04786 0.12877,-4.31e-4 0.19623,0.01427 0.2979,0.06494 0.0723,0.03602 0.16563,0.108671 0.20742,0.161443 0.0418,0.05277 0.0906,0.129026 0.10851,0.169456 0.026,0.05873 0.0351,1.219918 0.0452,5.775804 l 0.0127,5.702306 5.6914,0.0127 c 5.6914,0.0127 5.6914,0.0127 5.842,0.0895 0.10996,0.056 0.17278,0.10981 0.2328,0.1992 0.0452,0.0673 0.0949,0.16966 0.11047,0.22739 0.0157,0.0585 0.0209,0.16028 0.0117,0.22993 -0.009,0.0687 -0.0379,0.16618 -0.0639,0.21654 -0.026,0.0504 -0.0911,0.13387 -0.14469,0.18558 -0.0536,0.0517 -0.14312,0.11456 -0.199,0.1397 -0.0973,0.0438 -0.60681,0.0458 -12.0777,0.0491 z m -0.0762,-0.39723 c 11.3027,0 11.92992,-0.002 12.01385,-0.0444 0.0487,-0.0244 0.10282,-0.073 0.12027,-0.10791 0.0174,-0.0349 0.0319,-0.0948 0.0321,-0.13295 2.5e-4,-0.0412 -0.0297,-0.10314 -0.0737,-0.1524 -0.0741,-0.083 -0.0741,-0.083 -5.93586,-0.0895 -4.63995,-0.005 -5.86591,-0.0131 -5.88179,-0.0381 -0.011,-0.0174 -0.0202,-2.655089 -0.0205,-5.861587 -3.6e-4,-5.348386 -0.004,-5.834883 -0.0418,-5.889132 -0.0228,-0.03253 -0.0799,-0.07523 -0.127,-0.09489 -0.0736,-0.03074 -0.0976,-0.03074 -0.17116,0 -0.0471,0.01967 -0.10422,0.06237 -0.127,0.09489 -0.038,0.05425 -0.0414,0.540746 -0.0418,5.889132 -2.5e-4,3.206498 -0.009,5.844217 -0.0205,5.861587 -0.0159,0.025 -1.24184,0.0329 -5.88179,0.0381 -5.86174,0.007 -5.86174,0.007 -5.93586,0.0895 -0.044,0.0493 -0.074,0.11116 -0.0737,0.1524 2.6e-4,0.0382 0.0147,0.098 0.0321,0.13295 0.0174,0.0349 0.0716,0.0835 0.12027,0.10791 0.0839,0.0421 0.71115,0.0444 12.01385,0.0444 z m -23.81803,0.37989 c -0.13063,-8.9e-4 -0.20047,-0.0159 -0.28894,-0.062 -0.0642,-0.0334 -0.15278,-0.1019 -0.19691,-0.15216 -0.0441,-0.0503 -0.10021,-0.13382 -0.12462,-0.18568 -0.0421,-0.0894 -0.0444,-0.72674 -0.0444,-12.146611 0,-12.052299 0,-12.052299 0.0715,-12.197831 0.0393,-0.08004 0.11323,-0.179964 0.16429,-0.22205 0.0511,-0.04209 0.14907,-0.0952 0.2178,-0.118028 0.0842,-0.02795 0.17225,-0.03722 0.26974,-0.02838 0.0796,0.0072 0.17954,0.03111 0.22204,0.05309 0.0425,0.02198 0.11349,0.07044 0.15776,0.107689 0.0443,0.03725 0.11137,0.12625 0.1491,0.197774 0.0686,0.130041 0.0686,0.130041 0.0752,5.818312 0.005,4.490514 0.0133,5.69248 0.0381,5.708261 0.0173,0.01099 2.58098,0.02017 5.69704,0.02038 5.66557,3.81e-4 5.66557,3.81e-4 5.79696,0.06586 0.0723,0.03601 0.162,0.101732 0.19941,0.14605 0.0374,0.04432 0.0889,0.126294 0.11434,0.182174 0.0261,0.05729 0.0466,0.161239 0.0469,0.238353 3.1e-4,0.07522 -0.0135,0.1838 -0.0307,0.2413 -0.0191,0.0639 -0.0808,0.155461 -0.15875,0.235504 -0.0969,0.09952 -0.16065,0.14068 -0.26549,0.17145 -0.12443,0.03652 -0.69175,0.04049 -5.78458,0.04049 h -5.64661 l -0.007,5.695949 c -0.007,5.695954 -0.007,5.695954 -0.0597,5.810254 -0.0292,0.0629 -0.1019,0.15827 -0.16156,0.21202 -0.0597,0.0537 -0.14685,0.11375 -0.19375,0.13335 -0.0469,0.0196 -0.1628,0.0351 -0.25754,0.0344 z m 0,-0.38081 c 0.0109,5.4e-4 0.0586,-0.0152 0.1059,-0.035 0.0473,-0.0198 0.10125,-0.0626 0.11984,-0.0952 0.0277,-0.0487 0.0361,-1.10576 0.0465,-5.914009 l 0.0127,-5.854699 5.85582,-0.0127 c 5.52844,-0.01199 5.85962,-0.01519 5.92386,-0.05728 0.0374,-0.02452 0.0777,-0.08167 0.0894,-0.126998 0.0118,-0.04533 0.0165,-0.107856 0.0105,-0.138948 -0.006,-0.03109 -0.0383,-0.08399 -0.0718,-0.117549 -0.0336,-0.03356 -0.0966,-0.06813 -0.14004,-0.07682 -0.0435,-0.0087 -2.68934,-0.0158 -5.87974,-0.0158 h -5.80072 v -5.831812 c 0,-5.211894 -0.004,-5.84062 -0.0393,-5.914679 -0.0216,-0.04558 -0.0679,-0.09588 -0.1028,-0.111788 -0.0349,-0.01591 -0.097,-0.02892 -0.13808,-0.02892 -0.0465,0 -0.1058,0.02788 -0.15755,0.07412 -0.0829,0.07411 -0.0829,0.07411 -0.0894,12.040221 -0.006,10.464671 -0.002,11.977291 0.0308,12.055211 0.0242,0.0578 0.0665,0.10184 0.12073,0.12538 0.0459,0.0199 0.0924,0.0367 0.10337,0.0373 z m 47.62108,0.381 c -0.0926,-5.5e-4 -0.20429,-0.0166 -0.24823,-0.0357 -0.0439,-0.0191 -0.12862,-0.0787 -0.18821,-0.13236 -0.0596,-0.0537 -0.13223,-0.14904 -0.16143,-0.2119 -0.0531,-0.1143 -0.0531,-0.1143 -0.0597,-5.810254 l -0.007,-5.695949 h -5.64661 c -5.09283,0 -5.66015,-0.004 -5.78458,-0.04049 -0.10484,-0.03077 -0.16858,-0.07193 -0.26549,-0.17145 -0.078,-0.08004 -0.13967,-0.171602 -0.15875,-0.235504 -0.0172,-0.0575 -0.031,-0.166085 -0.0307,-0.2413 3e-4,-0.07711 0.0207,-0.181061 0.0469,-0.238353 0.0255,-0.05588 0.0769,-0.137859 0.11434,-0.182174 0.0374,-0.04432 0.12715,-0.110041 0.19941,-0.14605 0.13139,-0.06548 0.13139,-0.06548 5.79696,-0.06586 3.11606,-2.54e-4 5.67972,-0.0094 5.69704,-0.02038 0.0248,-0.01578 0.0329,-1.217747 0.0381,-5.708261 0.007,-5.688271 0.007,-5.688271 0.0752,-5.818312 0.0377,-0.07152 0.10482,-0.16052 0.1491,-0.197774 0.0443,-0.03725 0.11526,-0.08571 0.15776,-0.107689 0.0425,-0.02198 0.14242,-0.04587 0.22204,-0.05309 0.0975,-0.0088 0.18558,4.32e-4 0.26974,0.02838 0.0687,0.02283 0.16674,0.07594 0.2178,0.118028 0.0511,0.04209 0.12499,0.142007 0.16429,0.22205 0.0715,0.145532 0.0715,0.145532 0.0715,12.197831 0,12.052301 0,12.052301 -0.0596,12.172211 -0.0328,0.066 -0.10396,0.15998 -0.15818,0.20897 -0.0542,0.049 -0.14024,0.10647 -0.19115,0.12774 -0.0525,0.022 -0.16537,0.0383 -0.26092,0.0377 z m 0.004,-0.381 c 0.0109,5.4e-4 0.0599,-0.0157 0.10886,-0.0362 0.0606,-0.0253 0.10091,-0.0657 0.12626,-0.12637 0.0326,-0.078 0.0365,-1.58529 0.0308,-12.055302 -0.006,-11.966107 -0.006,-11.966107 -0.0894,-12.040221 -0.0517,-0.04624 -0.11101,-0.07412 -0.15755,-0.07412 -0.041,0 -0.10317,0.01301 -0.13808,0.02892 -0.0349,0.0159 -0.0812,0.06621 -0.1028,0.111788 -0.0351,0.07406 -0.0393,0.702785 -0.0393,5.914679 v 5.831812 h -5.80073 c -3.1904,0 -5.83628,0.0071 -5.87973,0.0158 -0.0435,0.0087 -0.10648,0.04326 -0.14004,0.07682 -0.0336,0.03356 -0.0659,0.08646 -0.0718,0.117549 -0.006,0.03109 -0.001,0.09362 0.0105,0.138948 0.0117,0.04533 0.052,0.102476 0.0894,0.126998 0.0642,0.04209 0.39542,0.04529 5.92386,0.05728 l 5.85582,0.0127 0.0127,5.854699 c 0.0104,4.80435 0.0188,5.86533 0.0464,5.91392 0.0186,0.0326 0.07,0.075 0.1143,0.0943 0.0443,0.0193 0.0895,0.0355 0.10042,0.036 z M 62.125811,78.699102 c -10.36477,-0.0017 -12.03012,-0.007 -12.11857,-0.03842 -0.0564,-0.02002 -0.14538,-0.07172 -0.19773,-0.114866 -0.0523,-0.04315 -0.12622,-0.137305 -0.16415,-0.209235 -0.069,-0.130779 -0.069,-0.130779 -0.0755,-6.200515 -0.006,-5.285961 -0.002,-6.086246 0.0309,-6.1976 0.0206,-0.07033 0.073,-0.170736 0.11638,-0.223139 0.0434,-0.0524 0.13239,-0.126695 0.19772,-0.1651 0.11878,-0.06983 0.11878,-0.06983 3.24159,-0.07657 2.76397,-0.006 3.13642,-0.0022 3.24127,0.0326 0.0652,0.02164 0.1644,0.07866 0.22052,0.126701 0.0561,0.04804 0.12475,0.13624 0.15249,0.195996 0.0277,0.05975 0.0584,0.152245 0.0681,0.205537 0.01,0.05329 0.005,0.15926 -0.0111,0.235481 -0.0173,0.08325 -0.0613,0.181264 -0.11029,0.245463 -0.0448,0.05878 -0.13737,0.141409 -0.20563,0.183619 -0.12412,0.07674 -0.12412,0.07674 -2.85663,0.08944 l -2.7325,0.0127 v 5.2832 5.2832 h 11.2141 11.2141 v -5.2832 -5.2832 l -2.7325,-0.0127 c -2.73251,-0.0127 -2.73251,-0.0127 -2.85663,-0.08944 -0.0683,-0.04221 -0.1608,-0.124839 -0.20563,-0.183619 -0.049,-0.0642 -0.093,-0.162215 -0.11029,-0.245463 -0.0158,-0.07622 -0.0208,-0.182189 -0.0112,-0.235481 0.01,-0.05329 0.0443,-0.15003 0.0768,-0.214973 0.0325,-0.06495 0.10206,-0.153436 0.15448,-0.196652 0.0524,-0.04321 0.14775,-0.09598 0.21182,-0.117264 0.10227,-0.03397 0.49787,-0.03787 3.2393,-0.03195 3.12281,0.0067 3.12281,0.0067 3.24159,0.07657 0.0653,0.0384 0.1543,0.1127 0.19772,0.1651 0.0434,0.0524 0.0958,0.152814 0.11638,0.223139 0.0326,0.111354 0.0366,0.911639 0.0309,6.1976 -0.007,6.069736 -0.007,6.069736 -0.0755,6.200515 -0.0379,0.07193 -0.11159,0.165908 -0.16367,0.208841 -0.0521,0.04293 -0.14596,0.09553 -0.2086,0.116871 -0.10157,0.03461 -1.41465,0.03859 -12.12992,0.0368 z m 0.0109,-0.404395 c 11.99388,0 11.99388,0 12.08024,-0.08636 0.0864,-0.08636 0.0864,-0.08636 0.0864,-6.107504 0,-4.614135 -0.007,-6.036708 -0.0303,-6.087744 -0.0167,-0.03663 -0.0618,-0.08289 -0.10033,-0.102797 -0.0594,-0.03073 -0.52794,-0.03619 -3.10536,-0.03619 -2.12838,0 -3.05345,0.0082 -3.09587,0.02756 -0.0333,0.01516 -0.0795,0.05979 -0.10279,0.09917 -0.0233,0.03938 -0.0423,0.09631 -0.0423,0.126504 0,0.0302 0.0128,0.07987 0.0284,0.110381 0.0156,0.03052 0.0528,0.07523 0.0825,0.09937 0.0506,0.04099 0.24215,0.04392 2.90325,0.04445 1.56699,3.04e-4 2.86715,0.0075 2.88925,0.01598 0.0365,0.014 0.0402,0.53892 0.0402,5.6896 0,3.120799 -0.009,5.675769 -0.019,5.677712 -0.0105,0.0019 -5.23113,0.0056 -11.60145,0.0082 -6.37032,0.0026 -11.59669,-2.54e-4 -11.61415,-0.0062 -0.0253,-0.0087 -0.0317,-1.167945 -0.0317,-5.682368 0,-5.148204 0.004,-5.672886 0.0402,-5.686882 0.0221,-0.0085 1.32226,-0.01567 2.88925,-0.01598 2.6611,-5.34e-4 2.85264,-0.0035 2.90325,-0.04445 0.0298,-0.02414 0.0669,-0.06885 0.0825,-0.09937 0.0156,-0.03051 0.0284,-0.08019 0.0284,-0.110381 0,-0.03019 -0.019,-0.08712 -0.0423,-0.126504 -0.0233,-0.03938 -0.0695,-0.08401 -0.10279,-0.09917 -0.0424,-0.01933 -0.96749,-0.02756 -3.09587,-0.02756 -2.57742,0 -3.04592,0.0055 -3.10536,0.03619 -0.0385,0.01991 -0.0836,0.06616 -0.10033,0.102797 -0.0233,0.05104 -0.0303,1.473609 -0.0303,6.087744 0,6.021144 0,6.021144 0.0864,6.107504 0.0864,0.08636 0.0864,0.08636 12.08024,0.08636 z m -47.5869,-11.51274 c -12.0903999,0.0062 -12.0903999,0.0062 -12.2175799,-0.05312 -0.07,-0.03261 -0.16568,-0.103129 -0.21273,-0.156713 -0.047,-0.05359 -0.10315,-0.138265 -0.12467,-0.188176 -0.0217,-0.05042 -0.0393,-0.164109 -0.0395,-0.255847 -2.5e-4,-0.128793 0.0144,-0.193695 0.0665,-0.29514 0.0367,-0.07152 0.10449,-0.161839 0.15058,-0.200701 0.0461,-0.03886 0.1238,-0.08893 0.1727,-0.111257 0.0809,-0.03695 1.1362,-0.04174 11.7474999,-0.0533 l 11.6586,-0.0127 v -11.2268 -11.226799 l -11.6459,-0.0127 c -11.6458999,-0.0127 -11.6458999,-0.0127 -11.7604899,-0.06574 -0.063,-0.02917 -0.15345,-0.09191 -0.20096,-0.139415 -0.0475,-0.04751 -0.11024,-0.13794 -0.13941,-0.200962 -0.053,-0.114585 -0.053,-0.114585 -0.053,-18.123183 0,-18.008599 0,-18.008599 0.053,-18.123184 0.0292,-0.06302 0.0919,-0.153454 0.13941,-0.200961 0.0475,-0.04751 0.13794,-0.110244 0.20096,-0.139415 0.11459,-0.05304 0.11459,-0.05304 59.7918899,-0.05304 59.677299,0 59.677299,0 59.791879,0.05304 0.063,0.02917 0.15346,0.09191 0.20097,0.139415 0.0475,0.04751 0.11024,0.137939 0.13941,0.200961 0.053,0.114585 0.053,0.114585 0.053,18.123184 0,18.008598 0,18.008598 -0.053,18.123183 -0.0292,0.06302 -0.0919,0.153454 -0.13941,0.200962 -0.0475,0.04751 -0.13794,0.110244 -0.20097,0.139415 -0.11458,0.05304 -0.11458,0.05304 -11.76048,0.06574 l -11.645899,0.0127 v 11.226799 11.2268 l 11.658599,0.0127 c 10.6113,0.01156 11.66659,0.01635 11.7475,0.0533 0.0489,0.02233 0.12661,0.0724 0.1727,0.111257 0.0461,0.03886 0.11385,0.129177 0.15058,0.200701 0.0521,0.101445 0.0667,0.166347 0.0664,0.29514 -2.5e-4,0.093 -0.0177,0.205474 -0.0402,0.257546 -0.0219,0.05084 -0.081,0.138059 -0.13141,0.193812 -0.0504,0.05575 -0.14801,0.125644 -0.21698,0.155311 -0.12539,0.05394 -0.12539,0.05394 -12.21083,0.04749 -11.500639,-0.0061 -12.089429,-0.0086 -12.167599,-0.05135 -0.0452,-0.02469 -0.1202,-0.08295 -0.1667,-0.129454 -0.0465,-0.04651 -0.1067,-0.129174 -0.13376,-0.183705 -0.0485,-0.09765 -0.0492,-0.281854 -0.0492,-12.189546 0,-12.090399 0,-12.090399 0.074,-12.223858 0.0407,-0.0734 0.11211,-0.16257 0.15876,-0.19815 0.0466,-0.03558 0.12767,-0.08411 0.18005,-0.107841 0.0891,-0.04037 0.84574,-0.04357 11.734789,-0.04969 l 11.63955,-0.0065 V 24.459209 7.27629 l -29.089349,0.0064 -29.08935,0.0064 -0.0127,11.658599 c -0.0127,11.658599 -0.0127,11.658599 -0.0676,11.760199 -0.0302,0.05588 -0.0931,0.137468 -0.1397,0.181307 -0.0466,0.04384 -0.12479,0.100761 -0.17368,0.126495 -0.0634,0.03339 -0.14345,0.04679 -0.2794,0.04679 -0.13595,0 -0.21596,-0.0134 -0.2794,-0.04679 -0.0489,-0.02573 -0.12705,-0.08266 -0.17368,-0.126495 -0.0466,-0.04384 -0.10949,-0.125427 -0.1397,-0.181307 -0.0549,-0.1016 -0.0549,-0.1016 -0.0676,-11.760199 L 61.463601,7.28909 32.374251,7.28269 3.2849011,7.27629 v 17.182919 17.182919 l 11.6395499,0.0065 c 10.88905,0.0061 11.64569,0.0093 11.73479,0.04969 0.0524,0.02373 0.13341,0.07226 0.18005,0.107841 0.0466,0.03558 0.11809,0.124747 0.15876,0.19815 0.0739,0.133459 0.0739,0.133459 0.0739,12.223858 0,11.907692 -7.4e-4,12.091898 -0.0492,12.189546 -0.0271,0.05453 -0.0873,0.137198 -0.13376,0.183705 -0.0465,0.04651 -0.12152,0.104763 -0.1667,0.129454 -0.0782,0.04272 -0.66686,0.04519 -12.17255,0.05105 z m -0.0508,-0.376893 c 8.0757,0.0014 11.91737,-0.0062 11.98129,-0.02398 0.0518,-0.01437 0.11748,-0.05586 0.14605,-0.09218 0.052,-0.06605 0.052,-0.06605 0.052,-12.063724 0,-11.997671 0,-11.997671 -0.0741,-12.080622 -0.0741,-0.08295 -0.0741,-0.08295 -11.8999,-0.08938 L 2.8785711,42.048788 V 24.459319 6.86989 l 29.4957499,0.0064 29.49575,0.0064 0.0127,11.832293 c 0.0127,11.832294 0.0127,11.832294 0.0731,11.881172 0.0332,0.02688 0.0875,0.05569 0.12065,0.06401 0.0332,0.0083 0.0874,0.0083 0.12058,0 0.0332,-0.0083 0.0874,-0.03713 0.12065,-0.06401 0.0604,-0.04888 0.0604,-0.04888 0.0731,-11.881172 l 0.0127,-11.832293 29.49575,-0.0064 29.495749,-0.0064 v 17.589429 17.589428 l -11.82578,0.0064 c -11.825789,0.0064 -11.825789,0.0064 -11.899899,0.08938 -0.0741,0.08295 -0.0741,0.08295 -0.0741,12.080622 0,11.997674 0,11.997674 0.052,12.063724 0.0286,0.03633 0.0943,0.07781 0.14605,0.09218 0.0639,0.01774 3.908039,0.02613 11.968589,0.02613 8.25673,0 11.90392,-0.0082 11.97107,-0.02682 0.0649,-0.01802 0.11277,-0.05339 0.14596,-0.10781 0.0272,-0.04454 0.0494,-0.113566 0.0495,-0.153381 0,-0.04854 -0.0284,-0.10084 -0.0863,-0.15875 -0.0864,-0.08636 -0.0864,-0.08636 -11.88631,-0.08636 -11.640259,0 -11.800299,-6.6e-4 -11.826239,-0.04913 -0.018,-0.03366 -0.0262,-3.689939 -0.0259,-11.614149 2.5e-4,-6.360759 0.009,-11.57927 0.0205,-11.596686 0.016,-0.0252 2.432629,-0.03298 11.835429,-0.0381 11.81533,-0.0064 11.81533,-0.0064 11.88575,-0.07686 0.0704,-0.07043 0.0704,-0.07043 0.0704,-18.039772 0,-17.969344 0,-17.969344 -0.0704,-18.039772 -0.0704,-0.07043 -0.0704,-0.07043 -59.708469,-0.07043 -59.6380499,0 -59.6380499,0 -59.7084699,0.07043 -0.0704,0.07043 -0.0704,0.07043 -0.0704,18.039772 0,17.969343 0,17.969343 0.0704,18.039772 0.0704,0.07043 0.0704,0.07043 11.8857499,0.07686 9.4028,0.0051 11.81943,0.0129 11.83543,0.0381 0.0111,0.01742 0.0203,5.235927 0.0205,11.596686 2.7e-4,7.92421 -0.008,11.580487 -0.0259,11.614149 -0.0259,0.04847 -0.18598,0.04913 -11.82624,0.04913 -11.7999499,0 -11.7999499,0 -11.8863099,0.08636 -0.0579,0.05791 -0.0863,0.110209 -0.0863,0.15875 6e-5,0.03981 0.0225,0.109099 0.0498,0.153963 0.0305,0.04999 0.0821,0.0909 0.13325,0.105661 0.0521,0.01501 4.56065,0.0249 11.9707199,0.02623 z m 23.8635,0.374107 c -0.10376,0.0053 -0.20347,-0.0057 -0.26784,-0.02955 -0.0564,-0.02088 -0.14426,-0.07234 -0.19524,-0.114361 -0.051,-0.04202 -0.12485,-0.141892 -0.16415,-0.221935 -0.0715,-0.145532 -0.0715,-0.145532 -0.0715,-12.197831 0,-11.419869 0.002,-12.057247 0.0444,-12.146604 0.0244,-0.05187 0.0805,-0.135468 0.12471,-0.185781 0.0442,-0.05031 0.13526,-0.119316 0.20241,-0.153344 0.0925,-0.04688 0.1625,-0.06187 0.28885,-0.06187 0.0917,0 0.20514,0.01604 0.25204,0.03563 0.0469,0.0196 0.13409,0.07961 0.19375,0.13335 0.0597,0.05375 0.13236,0.149154 0.16156,0.212019 0.0531,0.1143 0.0531,0.1143 0.0597,5.81025 l 0.007,5.695949 h 5.64661 c 5.09283,0 5.66015,0.004 5.78458,0.04049 0.10484,0.03077 0.16858,0.07193 0.26549,0.17145 0.078,0.08004 0.13967,0.171602 0.15875,0.235504 0.0172,0.0575 0.0312,0.1667 0.0312,0.242664 0,0.09752 -0.0192,0.176733 -0.0655,0.269506 -0.036,0.07227 -0.10173,0.162002 -0.14605,0.199416 -0.0443,0.03741 -0.12629,0.08886 -0.18217,0.114338 -0.0973,0.04437 -0.33965,0.04635 -5.7658,0.04726 -3.11531,5.08e-4 -5.67836,0.0099 -5.69568,0.02093 -0.0248,0.01578 -0.0329,1.217747 -0.0381,5.708261 -0.007,5.688271 -0.007,5.688271 -0.0752,5.818312 -0.0377,0.07152 -0.10482,0.16052 -0.1491,0.197774 -0.0443,0.03725 -0.11618,0.08619 -0.15979,0.108738 -0.0436,0.02255 -0.15369,0.0448 -0.24461,0.04942 z m -0.0518,-0.397074 c 0.041,0 0.10317,-0.01301 0.13808,-0.02892 0.0349,-0.0159 0.0812,-0.06621 0.1028,-0.111788 0.0351,-0.07406 0.0393,-0.702785 0.0393,-5.914679 v -5.831812 h 5.80072 c 3.19041,0 5.83629,-0.0071 5.87974,-0.0158 0.0435,-0.0087 0.10648,-0.04326 0.14004,-0.07682 0.0336,-0.03356 0.0659,-0.08646 0.0718,-0.117549 0.006,-0.03109 0.001,-0.09362 -0.0105,-0.138948 -0.0117,-0.04533 -0.052,-0.102476 -0.0894,-0.126998 -0.0642,-0.04209 -0.39542,-0.04529 -5.92386,-0.05728 l -5.85582,-0.0127 -0.0127,-5.855817 c -0.0119,-5.475452 -0.0155,-5.860137 -0.0563,-5.922284 -0.024,-0.03655 -0.083,-0.07948 -0.13117,-0.09538 -0.0703,-0.02319 -0.10583,-0.02131 -0.17962,0.0095 -0.0636,0.02656 -0.1035,0.06599 -0.12925,0.127625 -0.0326,0.07804 -0.0365,1.585288 -0.0308,12.055299 0.006,11.966107 0.006,11.966107 0.0894,12.040221 0.0517,0.04624 0.11101,0.07412 0.15755,0.07412 z m 47.62763,0.405285 c -0.0639,-6.09e-4 -0.16039,-0.01689 -0.21449,-0.03618 -0.0541,-0.01928 -0.13983,-0.06826 -0.1905,-0.108826 -0.0507,-0.04057 -0.12643,-0.135735 -0.16834,-0.211473 -0.0762,-0.137709 -0.0762,-0.137709 -0.0828,-5.82598 -0.005,-4.490514 -0.0133,-5.69248 -0.0381,-5.708261 -0.0173,-0.01099 -2.58098,-0.02017 -5.69704,-0.02038 -5.66557,-3.81e-4 -5.66557,-3.81e-4 -5.79696,-0.06587 -0.0723,-0.03601 -0.162,-0.101732 -0.19941,-0.14605 -0.0374,-0.04431 -0.0889,-0.126294 -0.11434,-0.182174 -0.0261,-0.05729 -0.0466,-0.161239 -0.0469,-0.238353 -3.1e-4,-0.07522 0.0135,-0.1838 0.0307,-0.2413 0.0191,-0.0639 0.0808,-0.155461 0.15875,-0.235504 0.0969,-0.09952 0.16065,-0.14068 0.26549,-0.17145 0.12443,-0.03652 0.69175,-0.04049 5.78458,-0.04049 h 5.64661 l 0.007,-5.695949 c 0.007,-5.69595 0.007,-5.69595 0.0597,-5.81025 0.0292,-0.06286 0.1019,-0.158272 0.16156,-0.212019 0.0597,-0.05374 0.14685,-0.113751 0.19375,-0.13335 0.0469,-0.0196 0.16006,-0.03563 0.25147,-0.03563 0.11578,0 0.20055,0.01615 0.27947,0.05325 0.0623,0.02929 0.15336,0.09761 0.20235,0.151836 0.049,0.05422 0.10933,0.141704 0.13409,0.194402 0.0429,0.0913 0.045,0.663839 0.045,12.148115 0,12.052299 0,12.052299 -0.0715,12.197831 -0.0393,0.08004 -0.11295,0.179736 -0.16367,0.221542 -0.0507,0.0418 -0.14347,0.09347 -0.20611,0.114818 -0.0627,0.02134 -0.16616,0.03831 -0.23002,0.03769 z m 0.0168,-0.407004 c 0.0565,0.0012 0.10804,-0.02141 0.1651,-0.0724 0.0829,-0.07411 0.0829,-0.07411 0.0894,-12.040221 0.006,-10.470011 0.002,-11.97726 -0.0308,-12.055299 -0.0257,-0.06163 -0.0657,-0.101064 -0.12925,-0.127625 -0.0738,-0.03083 -0.10934,-0.03271 -0.17962,-0.0095 -0.0482,0.01591 -0.10722,0.05883 -0.13117,0.09538 -0.0407,0.06215 -0.0444,0.446832 -0.0562,5.922284 l -0.0127,5.855817 -5.85582,0.0127 c -5.52844,0.01199 -5.85962,0.01519 -5.92386,0.05728 -0.0374,0.02452 -0.0777,0.08167 -0.0894,0.126998 -0.0118,0.04533 -0.0165,0.107856 -0.0105,0.138948 0.006,0.03109 0.0383,0.08399 0.0718,0.117549 0.0336,0.03356 0.0966,0.06813 0.14004,0.07682 0.0435,0.0087 2.68934,0.0158 5.87973,0.0158 h 5.80073 v 5.831812 c 0,5.21895 0.004,5.840544 0.0394,5.914913 0.0217,0.04571 0.0645,0.09524 0.0952,0.110071 0.0307,0.01483 0.0928,0.02774 0.13796,0.02868 z M 62.137931,54.87535 c -0.1071,-3.56e-4 -0.20361,-0.01743 -0.27063,-0.04786 -0.0573,-0.02602 -0.14374,-0.08688 -0.19211,-0.135245 -0.0484,-0.04837 -0.11007,-0.132555 -0.13713,-0.187086 -0.0481,-0.09694 -0.0495,-0.225771 -0.0619,-5.801446 l -0.0127,-5.7023 -5.6914,-0.0127 c -5.6914,-0.0127 -5.6914,-0.0127 -5.842,-0.08947 -0.10996,-0.05605 -0.17278,-0.109812 -0.2328,-0.199205 -0.0452,-0.06734 -0.0949,-0.169659 -0.11047,-0.227383 -0.0157,-0.05849 -0.0209,-0.160282 -0.0117,-0.229931 0.009,-0.06874 0.0379,-0.166698 0.0639,-0.217686 0.026,-0.05099 0.0978,-0.139258 0.15953,-0.196156 0.0617,-0.0569 0.15698,-0.119246 0.21169,-0.138557 0.0841,-0.02969 1.95586,-0.03511 12.12636,-0.03511 10.1705,0 12.04225,0.0054 12.12636,0.03511 0.0547,0.01931 0.14997,0.08166 0.21169,0.138557 0.0617,0.0569 0.13352,0.145166 0.15953,0.196156 0.026,0.05099 0.0548,0.148946 0.0639,0.217686 0.009,0.06965 0.004,0.171442 -0.0117,0.229931 -0.0155,0.05772 -0.0652,0.160045 -0.11047,0.227383 -0.06,0.08939 -0.12284,0.143152 -0.2328,0.199205 -0.1506,0.07677 -0.1506,0.07677 -5.842,0.08947 l -5.6914,0.0127 -0.0127,5.7023 c -0.0102,4.555886 -0.0192,5.717077 -0.0452,5.775804 -0.0179,0.04043 -0.0667,0.116683 -0.10851,0.169456 -0.0418,0.05277 -0.13513,0.125421 -0.20742,0.161443 -0.10167,0.05067 -0.16913,0.06537 -0.2979,0.06494 z m -0.007,-0.381435 c 0.004,5.59e-4 0.0453,-0.01495 0.0919,-0.03442 0.0466,-0.01948 0.1034,-0.06203 0.12618,-0.09455 0.038,-0.05425 0.0414,-0.540746 0.0418,-5.889132 2.5e-4,-3.206498 0.009,-5.844212 0.0205,-5.861585 0.0159,-0.025 1.24184,-0.03295 5.88179,-0.0381 5.86174,-0.0065 5.86174,-0.0065 5.93586,-0.08946 0.044,-0.04926 0.074,-0.111158 0.0737,-0.1524 -2.6e-4,-0.0382 -0.0147,-0.09802 -0.0321,-0.132949 -0.0174,-0.03493 -0.0716,-0.08348 -0.12027,-0.107909 -0.0839,-0.04209 -0.71115,-0.04441 -12.01385,-0.04441 -11.3027,0 -11.92992,0.0023 -12.01385,0.04441 -0.0487,0.02443 -0.10282,0.07298 -0.12027,0.107909 -0.0174,0.03493 -0.0319,0.09475 -0.0321,0.132949 -2.5e-4,0.04124 0.0297,0.103142 0.0737,0.1524 0.0741,0.08295 0.0741,0.08295 5.93586,0.08946 4.63995,0.0052 5.86591,0.0131 5.88179,0.0381 0.011,0.01737 0.0202,2.655087 0.0205,5.861585 3.6e-4,5.344889 0.004,5.834911 0.0418,5.889046 0.0228,0.03248 0.077,0.07458 0.12065,0.09356 0.0436,0.01898 0.0825,0.03496 0.0865,0.0355 z m -41.67393,-23.41981 c -5.43806,-0.0018 -6.07132,-0.0061 -6.17267,-0.04188 -0.0643,-0.02269 -0.16369,-0.09062 -0.2307,-0.157638 -0.0739,-0.0739 -0.13354,-0.16405 -0.16011,-0.242045 -0.0391,-0.114643 -0.0423,-0.593398 -0.0423,-6.173132 0,-5.579733 0.003,-6.058488 0.0423,-6.173131 0.0265,-0.07785 0.0862,-0.168102 0.15964,-0.241578 0.0735,-0.07348 0.16373,-0.133117 0.24158,-0.159643 0.11464,-0.03906 0.5934,-0.04235 6.17313,-0.04235 5.57973,0 6.05849,0.0033 6.17313,0.04235 0.0778,0.02653 0.1681,0.08617 0.24158,0.159643 0.0735,0.07347 0.13312,0.163728 0.15964,0.241578 0.0391,0.114643 0.0423,0.593398 0.0423,6.173131 0,5.579734 -0.003,6.058489 -0.0423,6.173132 -0.0265,0.07785 -0.0862,0.168102 -0.15964,0.241578 -0.0735,0.07348 -0.16373,0.133117 -0.24158,0.159643 -0.11471,0.03909 -0.5909,0.04219 -6.184,0.04034 z m 0.003,-0.405412 c 4.60908,7.8e-4 6.0278,-0.0061 6.07886,-0.02933 0.0366,-0.01669 0.0829,-0.06184 0.10279,-0.100338 0.031,-0.06 0.0362,-0.927976 0.0362,-6.079616 0,-5.205511 -0.005,-6.019171 -0.0369,-6.080984 -0.0203,-0.03925 -0.0689,-0.08451 -0.10795,-0.100574 -0.053,-0.0218 -1.61741,-0.02754 -6.16705,-0.02263 l -6.096,0.0066 -0.007,6.095999 c -0.005,4.541047 8.5e-4,6.114079 0.0226,6.166876 0.016,0.03898 0.059,0.0871 0.0955,0.106933 0.0567,0.03085 0.93523,0.0362 6.07859,0.03707 z m 0.008,-0.506983 c -5.07747,0 -5.62634,-0.0039 -5.66239,-0.03991 -0.036,-0.03605 -0.0399,-0.584914 -0.0399,-5.662385 0,-5.07747 0.004,-5.62634 0.0399,-5.662385 0.036,-0.03604 0.58492,-0.03991 5.66239,-0.03991 5.07747,0 5.62634,0.0039 5.66239,0.03991 0.036,0.03605 0.0399,0.584915 0.0399,5.662385 0,5.077471 -0.004,5.62634 -0.0399,5.662385 -0.0361,0.03604 -0.58492,0.03991 -5.66239,0.03991 z m 0,-0.4064 c 4.03775,0 5.24191,-0.007 5.26542,-0.03048 0.0235,-0.02351 0.0305,-1.227666 0.0305,-5.265419 0,-4.037754 -0.007,-5.24191 -0.0305,-5.26542 -0.0235,-0.02351 -1.22767,-0.03048 -5.26542,-0.03048 -4.03775,0 -5.24191,0.007 -5.26542,0.03048 -0.0235,0.02351 -0.0305,1.227666 -0.0305,5.26542 0,4.037753 0.007,5.24191 0.0305,5.265419 0.0235,0.02351 1.22767,0.03048 5.26542,0.03048 z m 23.8506,1.312265 c -3.61455,0.0025 -6.12842,-0.0053 -6.17564,-0.01902 -0.0438,-0.01275 -0.13498,-0.06035 -0.20263,-0.105765 -0.09,-0.06041 -0.14359,-0.123001 -0.19976,-0.233182 -0.0768,-0.150605 -0.0768,-0.150605 -0.0768,-6.250196 0,-6.099591 0,-6.099591 0.0768,-6.250196 0.056,-0.109962 0.10981,-0.172787 0.19921,-0.232808 0.0673,-0.04521 0.1658,-0.09388 0.21881,-0.108157 0.0647,-0.01742 2.09615,-0.02379 6.17619,-0.01939 6.07982,0.0066 6.07982,0.0066 6.18302,0.0618 0.0568,0.03038 0.14538,0.09866 0.19692,0.151729 0.0515,0.05307 0.1111,0.142508 0.13234,0.198756 0.0342,0.09068 0.0378,0.797692 0.0317,6.23637 -0.006,5.665874 -0.0102,6.139916 -0.0492,6.2103 -0.0232,0.04191 -0.0798,0.114264 -0.12565,0.160788 -0.0459,0.04652 -0.12972,0.109388 -0.18634,0.139699 -0.10294,0.05511 -0.10294,0.05511 -6.19894,0.05928 z m -0.0434,-0.397865 c 5.54214,0 6.04401,-0.0034 6.09828,-0.04142 0.0325,-0.02278 0.0751,-0.07956 0.0945,-0.126184 0.03,-0.07167 0.0354,-1.004821 0.0354,-6.042696 0,-5.082334 -0.005,-5.970586 -0.036,-6.04404 -0.0198,-0.04736 -0.0635,-0.104166 -0.0972,-0.126236 -0.0555,-0.03633 -0.63964,-0.03952 -6.18067,-0.03373 l -6.11943,0.0064 v 6.129834 c 0,6.129833 0,6.129833 0.0829,6.203949 0.083,0.07412 0.083,0.07412 6.1221,0.07412 z m -0.003,-0.510005 c -3.08972,-0.0011 -5.63196,-0.0078 -5.64942,-0.01482 -0.0253,-0.0102 -0.0317,-1.170991 -0.0317,-5.684877 0,-5.14875 0.004,-5.673488 0.0402,-5.687483 0.0221,-0.0085 2.56434,-0.01542 5.64942,-0.01542 3.08508,0 5.62732,0.0069 5.64942,0.01542 0.0365,0.014 0.0402,0.538679 0.0402,5.686882 0,5.148203 -0.004,5.672887 -0.0402,5.686882 -0.0221,0.0085 -2.56813,0.01451 -5.65785,0.01341 z m 0.014,-0.410685 5.26492,-0.0064 v -5.283199 -5.2832 h -5.2705 -5.2705 l -0.007,5.2578 c -0.004,2.891789 -10e-4,5.272114 0.006,5.289609 0.01,0.02537 1.07841,0.03051 5.27702,0.0254 z m 35.69412,1.325834 c -5.00742,-8.06e-4 -6.06169,-0.0069 -6.14127,-0.03525 -0.0528,-0.01885 -0.13285,-0.05962 -0.1778,-0.09059 -0.045,-0.03097 -0.11325,-0.09701 -0.15177,-0.14674 -0.0385,-0.04973 -0.0815,-0.132903 -0.0954,-0.184823 -0.0167,-0.06207 -0.0232,-2.189684 -0.0189,-6.212319 0.006,-5.65122 0.01,-6.123734 0.0488,-6.194121 0.0232,-0.04191 0.0798,-0.114265 0.12565,-0.160788 0.0459,-0.04652 0.12972,-0.109388 0.18634,-0.1397 0.10294,-0.05511 0.10294,-0.05511 6.18276,-0.06167 4.08004,-0.0044 6.11151,0.002 6.17619,0.01939 0.053,0.01427 0.15148,0.06294 0.21881,0.108157 0.0894,0.06002 0.14316,0.122846 0.19921,0.232809 0.0768,0.150604 0.0768,0.150604 0.0768,6.250195 0,6.099592 0,6.099592 -0.0768,6.250196 -0.0559,0.109761 -0.10984,0.172805 -0.1987,0.23247 -0.0671,0.04503 -0.16396,0.09354 -0.21533,0.107808 -0.0624,0.01733 -2.09913,0.02562 -6.1386,0.02497 z m 0.0179,-0.405144 c 6.03915,0 6.03915,0 6.1221,-0.07412 0.0829,-0.07412 0.0829,-0.07412 0.0829,-6.203949 v -6.129834 l -6.11943,-0.0064 c -5.54103,-0.0058 -6.12522,-0.0026 -6.18067,0.03373 -0.0337,0.02207 -0.0774,0.07888 -0.0972,0.126236 -0.0307,0.07345 -0.036,0.961705 -0.036,6.04404 0,5.037875 0.005,5.971021 0.0354,6.042696 0.0195,0.04662 0.062,0.103403 0.0945,0.126184 0.0543,0.03801 0.55614,0.04142 6.09828,0.04142 z m -0.0137,-0.510005 c -3.08972,-0.0011 -5.63196,-0.0078 -5.64942,-0.01482 -0.0253,-0.0102 -0.0318,-1.170991 -0.0318,-5.684877 0,-5.14875 0.004,-5.673488 0.0402,-5.687483 0.0221,-0.0085 2.56434,-0.01542 5.64942,-0.01542 3.08508,0 5.62732,0.0069 5.64942,0.01542 0.0365,0.014 0.0402,0.538679 0.0402,5.686882 0,5.148203 -0.004,5.672887 -0.0402,5.686882 -0.0221,0.0085 -2.56813,0.01451 -5.65785,0.01341 z m 0.014,-0.410685 5.26492,-0.0064 v -5.283199 -5.2832 h -5.2705 -5.2705 l -0.007,5.2578 c -0.004,2.891789 -0.001,5.272114 0.006,5.289609 0.01,0.02537 1.07841,0.03051 5.27702,0.0254 z m 23.796049,1.325085 c -5.438059,-0.0018 -6.071319,-0.0061 -6.172669,-0.04188 -0.0643,-0.02269 -0.16369,-0.09062 -0.2307,-0.157638 -0.0739,-0.0739 -0.13354,-0.16405 -0.16011,-0.242045 -0.0391,-0.114643 -0.0423,-0.593398 -0.0423,-6.173132 0,-5.579733 0.003,-6.058488 0.0423,-6.173131 0.0265,-0.07785 0.0862,-0.168102 0.15964,-0.241578 0.0735,-0.07348 0.16373,-0.133117 0.24158,-0.159643 0.11464,-0.03906 0.5934,-0.04235 6.173129,-0.04235 5.57973,0 6.05849,0.0033 6.17313,0.04235 0.0779,0.02653 0.1681,0.08617 0.24158,0.159643 0.0735,0.07347 0.13312,0.163728 0.15964,0.241578 0.0391,0.114643 0.0423,0.593398 0.0423,6.173131 0,5.579734 -0.003,6.058489 -0.0423,6.173132 -0.0265,0.07785 -0.0862,0.168102 -0.15964,0.241578 -0.0735,0.07348 -0.16373,0.133117 -0.24158,0.159643 -0.11471,0.03909 -0.5909,0.04219 -6.184,0.04034 z m 0.006,-0.405295 c 5.21119,7.8e-4 6.02424,-0.004 6.08607,-0.036 0.0393,-0.0203 0.0845,-0.06887 0.10058,-0.10795 0.0218,-0.05302 0.0275,-1.617405 0.0226,-6.167047 l -0.007,-6.096 -6.096,-0.0066 c -4.549639,-0.0049 -6.114019,8.26e-4 -6.167049,0.02263 -0.0391,0.01607 -0.0876,0.06133 -0.10795,0.100575 -0.032,0.06183 -0.0368,0.874885 -0.036,6.086072 7.4e-4,4.943745 0.007,6.02552 0.0345,6.075415 0.0185,0.03339 0.061,0.07584 0.0943,0.09435 0.0499,0.02765 1.13167,0.03381 6.075409,0.03455 z m 0.005,-0.5071 c -5.077469,0 -5.626339,-0.0039 -5.662389,-0.03991 -0.036,-0.03605 -0.0399,-0.584914 -0.0399,-5.662385 0,-5.07747 0.004,-5.62634 0.0399,-5.662385 0.036,-0.03604 0.58492,-0.03991 5.662389,-0.03991 5.07747,0 5.62634,0.0039 5.66239,0.03991 0.036,0.03605 0.0399,0.584915 0.0399,5.662385 0,5.077471 -0.004,5.62634 -0.0399,5.662385 -0.036,0.03604 -0.58492,0.03991 -5.66239,0.03991 z m 0,-0.4064 c 4.03775,0 5.24191,-0.007 5.26542,-0.03048 0.0235,-0.02351 0.0305,-1.227666 0.0305,-5.265419 0,-4.037754 -0.007,-5.24191 -0.0305,-5.26542 -0.0235,-0.02351 -1.22767,-0.03048 -5.26542,-0.03048 -4.037749,0 -5.241909,0.007 -5.265419,0.03048 -0.0235,0.02351 -0.0305,1.227666 -0.0305,5.26542 0,4.037753 0.007,5.24191 0.0305,5.265419 0.0235,0.02351 1.22767,0.03048 5.265419,0.03048 z"
       id="path1021"
       inkscape:connector-curvature="0" />
  </g>
  <g
     inkscape:groupmode="layer"
     id="layer3"
     inkscape:label="PacPlayer"
     style="display:inline"
     sodipodi:insensitive="true">
    <path
       style="fill:#ffff00;fill-opacity:1;stroke:#ffff00;stroke-width:0.66145831;stroke-linecap:round;stroke-linejoin:round;stroke-miterlimit:4;stroke-dasharray:none;stroke-dashoffset:0;stroke-opacity:1"
       id="path1278"
       sodipodi:type="arc"
       sodipodi:cx="93.552055"
       sodipodi:cy="74.278351"
       sodipodi:rx="3.4589002"
       sodipodi:ry="3.4589002"
       sodipodi:start="0.49475655"
       sodipodi:end="5.9017092"
       d="m 96.596179,75.920697 a 3.4589002,3.4589002 0 0 1 -3.985702,1.68593 3.4589002,3.4589002 0 0 1 -2.511775,-3.524084 3.4589002,3.4589002 0 0 1 2.894033,-3.21757 3.4589002,3.4589002 0 0 1 3.769581,2.125661 l -3.210261,1.287717 z" />
    <path
       style="fill:none;stroke:#ffff00;stroke-width:0.79374999;stroke-linecap:round;stroke-linejoin:round;stroke-miterlimit:4;stroke-dasharray:none;stroke-opacity:1"
       d="m 90.148526,73.661925 c 0,0 -2.174561,0.674881 -2.249816,2.932552 -0.07526,2.257673 -0.07526,2.257673 -0.07526,2.257673"
       id="path1282"
       inkscape:connector-curvature="0" />
    <path
       style="fill:none;stroke:#ffff00;stroke-width:0.79374999;stroke-linecap:round;stroke-linejoin:round;stroke-miterlimit:4;stroke-dasharray:none;stroke-opacity:1"
       d="m 92.031266,77.076182 c 0,0 -1.23386,0.674881 -1.30912,2.932552"
       id="path1282-4"
       inkscape:connector-curvature="0"
       sodipodi:nodetypes="cc" />
    <path
       style="fill:none;stroke:#ffff00;stroke-width:0.79374999;stroke-linecap:round;stroke-linejoin:round;stroke-miterlimit:4;stroke-dasharray:none;stroke-opacity:1"
       d="m 94.389076,77.634446 c 0,0 0.96132,0.116617 0.88606,2.374288"
       id="path1282-4-7"
       inkscape:connector-curvature="0"
       sodipodi:nodetypes="cc" />
  </g>
  <g
     inkscape:groupmode="layer"
     id="layer1"
     inkscape:label="Gun"
     sodipodi:insensitive="true">
    <path
       style="display:inline;fill:#000000;stroke-width:0.0470019"
       d="m 98.947816,72.614069 c -0.0358,-0.04316 -0.0467,-0.128896 -0.0284,-0.223259 0.0164,-0.08425 0.0422,-0.25894 0.0573,-0.388196 0.0152,-0.129256 0.15474,-0.552273 0.31015,-0.940039 0.15542,-0.387766 0.34053,-0.874236 0.41137,-1.081045 0.0708,-0.206808 0.19954,-0.557267 0.286,-0.778797 0.147474,-0.377838 0.168224,-0.406219 0.335004,-0.458269 0.25594,-0.07988 5.07213,-0.07902 5.15207,9.04e-4 0.0797,0.07972 0.0777,1.477007 -0.002,1.649431 l -0.0588,0.126509 -0.58752,0.0072 c -0.32314,0.004 -1.1267,0.0094 -1.7857,0.01212 l -1.19816,0.0049 -0.31572,0.869536 c -0.17364,0.478245 -0.30753,0.888215 -0.31764,0.904787 l -0.18994,0.311074 c -0.0198,0.03237 -0.28833,0.05319 -1.00479,0.05319 -0.833064,0 -1.014734,-0.01197 -1.062944,-0.07007 z"
       id="path1617"
       inkscape:connector-curvature="0"
       sodipodi:nodetypes="cccscccccccscsssscc" />
  </g>
  <g
     inkscape:groupmode="layer"
     id="layer6"
     inkscape:label="PacPlayer GunArm"
     style="display:inline"
     sodipodi:insensitive="true">
    <path
       style="fill:none;stroke:#ffff00;stroke-width:0.79375;stroke-linecap:round;stroke-linejoin:round;stroke-miterlimit:4;stroke-dasharray:none;stroke-opacity:1"
       d="m 95.829496,72.851967 c 0.2612,-0.922935 1.20337,-3.898064 4.614774,-0.952059"
       id="path1282-44"
       inkscape:connector-curvature="0"
       sodipodi:nodetypes="cc" />
  </g>
  <g
     inkscape:groupmode="layer"
     id="layer4"
     inkscape:label="GhostPlayer"
     style="display:inline"
     sodipodi:insensitive="true">
    <path
       id="path1727-9"
       style="display:inline;fill:#0000ff;fill-opacity:1;stroke:#0000ff;stroke-width:0.26458332px;stroke-linecap:butt;stroke-linejoin:miter;stroke-opacity:1"
       d="m 58.21618,76.348573 0.478924,-1.38356 1.365314,0.957848 c 0,0 0.847301,-8.144775 -3.836459,-8.144775 -4.68376,0 -3.836459,8.144775 -3.836459,8.144775 l 1.365314,-0.957848 0.478924,1.38356 1.992221,-1.38356 z"
       inkscape:connector-curvature="0"
       sodipodi:nodetypes="ccczccccc" />
  </g>
  <g
     inkscape:groupmode="layer"
     id="layer7"
     inkscape:label="GhostPlayerEyes"
     sodipodi:insensitive="true"
     style="display:inline">
    <ellipse
       style="display:inline;fill:#ffffff;fill-opacity:1;stroke:none;stroke-width:0.52916664;stroke-linecap:round;stroke-linejoin:round;stroke-miterlimit:4;stroke-dasharray:none;stroke-dashoffset:0;stroke-opacity:1"
       id="path1747"
       cx="54.944611"
       cy="70.474709"
       rx="0.75255746"
       ry="1.2176635" />
    <ellipse
       style="display:inline;fill:#ffffff;fill-opacity:1;stroke:none;stroke-width:0.52916664;stroke-linecap:round;stroke-linejoin:round;stroke-miterlimit:4;stroke-dasharray:none;stroke-dashoffset:0;stroke-opacity:1"
       id="path1747-2"
       cx="57.590446"
       cy="70.474709"
       rx="0.75255746"
       ry="1.2176635" />
    <g
       id="g1785"
       style="stroke:#ffffff;stroke-width:0.5291667;stroke-linecap:round;stroke-linejoin:round;stroke-miterlimit:4;stroke-dasharray:none;stroke-opacity:1">
      <path
         id="path1766-0"
         style="fill:none;stroke:#ffffff;stroke-width:0.5291667;stroke-linecap:round;stroke-linejoin:round;stroke-miterlimit:4;stroke-dasharray:none;stroke-opacity:1"
         d="m 53.544464,73.549578 0.455044,-0.788159 0.825045,0.825045 0.47335,-0.819867 0.926055,0.926052 m 2.679494,-0.143071 -0.455044,-0.788159 -0.825045,0.825045 -0.47335,-0.819867 -0.926055,0.926052"
         inkscape:connector-curvature="0" />
    </g>
    <ellipse
       style="display:inline;fill:#000000;fill-opacity:1;stroke:none;stroke-width:0.37041664;stroke-linecap:round;stroke-linejoin:round;stroke-miterlimit:4;stroke-dasharray:none;stroke-dashoffset:0;stroke-opacity:1"
       id="path1747-6"
       cx="55.208008"
       cy="70.474709"
       rx="0.5267902"
       ry="0.85236448" />
    <ellipse
       style="display:inline;fill:#000000;fill-opacity:1;stroke:none;stroke-width:0.37041664;stroke-linecap:round;stroke-linejoin:round;stroke-miterlimit:4;stroke-dasharray:none;stroke-dashoffset:0;stroke-opacity:1"
       id="path1747-2-8"
       cx="57.853844"
       cy="70.474709"
       rx="0.5267902"
       ry="0.85236448" />
  </g>
  <g
     inkscape:groupmode="layer"
     id="layer8"
     inkscape:label="PacBullet"
     sodipodi:insensitive="true"
     style="display:inline">
    <path
       style="fill:#000000;fill-opacity:1;stroke:#000000;stroke-width:0.02467574px;stroke-linecap:butt;stroke-linejoin:miter;stroke-opacity:1"
       d="m 109.91613,68.939809 -2.92812,0.0026 v 1.351768 l 2.92812,0.0026 c 0.24382,2.33e-4 1.175,-0.533832 1.175,-0.67839 0,-0.144558 -0.96591,-0.67857 -1.175,-0.678391 z"
       id="path11118"
       inkscape:connector-curvature="0"
       sodipodi:nodetypes="sccszs" />
  </g>
</svg>
